<svg xmlns="http://www.w3.org/2000/svg" height="800" width="1200" viewBox="-9.92187 -3.370475 85.98954 20.22285"><g stroke-width=".2539" fill="#1a64b7"><path d="M54.189 9.5855h-1.8253L54.56 5.115h.0354zm-39.8413 0h-1.8253l2.1949-4.4704h.0354zm46.1816 1.6878L62.813 3.312h-3.1492l-2.5963 9.0462-.0583-9.0462h-3.7938l-5.158 8.8601 2.5422-8.86H47.61l-1.2878 5.5552h-.0543l-.8627-5.5553h-3.2506l-2.2852 7.9613H35.374l.6154-2.1448h3.937l.5681-1.9824h-3.937l.5321-1.8518h4.062l.5695-1.9823H26.7474l-.2544.8877c-.4598-.6946-1.4517-1.1155-2.984-1.1155-2.4449 0-4.241.953-4.7759 2.8186-.25.8738-.0847 1.4809.3446 1.9837.4459.503 1.16.8863 2.0129 1.2961.7237.371 1.5739.6877 1.3336 1.5212-.143.5015-.6099.9918-1.3503.9918-.996 0-1.103-.5042-.939-1.0738l.2012-.703-2.9187.004-.2028.7058-.0472-7.3168h-3.7938L11.198 7.0487l.5862-2.0449h-5.226l.6737-2.345h5.679L13.6735 0H3.8022L0 13.2527h4.1912l1.6044-5.59h5.0441L7.5849 13.254h3.1673l.9266-1.9185h2.47l-.1029 1.9185h3.1854l-.004-.9641c.3946.7001 1.417 1.1919 3.2715 1.1919 2.6159 0 4.3523-1.0586 4.8983-2.9645.3457-1.203.1055-1.8642-.4835-2.3658-.5904-.5028-1.5128-.8473-2.5366-1.4016-.55-.3182-.878-.6223-.6182-1.217.1989-.4361.653-.7015 1.292-.6612 1.0335.0528.7695.846.639 1.428h2.9005c.1292-.357.1958-.6931.2028-1.0057h1.8573l-2.2851 7.96h3.1506l2.2838-7.96h2.1407l-2.2838 7.96h10.6438l1.303-5.5414.043-.0276.8765 5.5678h6.0733l.9266-1.9184h2.47l-.1044 1.9184h9.9201l.5695-1.981zm4.5892-7.1303v-.3012h.2c.1029 0 .2127.0236.2127.1429 0 .15-.111.1583-.2362.1583zm.3139.1181c.143-.0197.2516-.0929.2516-.2681 0-.1918-.1126-.2765-.343-.2765h-.3693v.971h.1472V4.268h.1694l.2571.4196h.1638z"/><path d="M65.297 4.9032c-.3863 0-.689-.2973-.689-.7016 0-.4.3028-.7001.689-.7001.3808 0 .6807.3.6807.7001 0 .4043-.3.7016-.6807.7016m0-1.5406c-.464 0-.857.3544-.857.839 0 .4862.393.8405.857.8405.4585 0 .8488-.3544.8488-.8405 0-.4848-.3902-.839-.8488-.839"/></g></svg>